<svg viewBox="0 0 90 24" fill="none" xmlns="http://www.w3.org/2000/svg"><path d="M28.462 17.24c-.28-.28-.622-.413-1.046-.413H18.93l-.01.004.023-.004c-.36 0-.635-.096-.844-.287-.214-.197-.32-.448-.32-.772v-5.376h9.622c.321 0 .693-.042 1.014-.346.29-.274.43-.614.43-1.012 0-.392-.144-.74-.441-1.025a1.434 1.434 0 0 0-1.044-.436h-9.58V5.628c0-.38-.143-.719-.417-.997a1.398 1.398 0 0 0-1.03-.42c-.4 0-.754.141-1.043.43a1.41 1.41 0 0 0-.444 1.028V16.97c0 1.81.886 2.689 2.71 2.689l9.901-.01c.387 0 .728-.134 1.012-.406.29-.277.432-.615.432-1.01 0-.38-.138-.699-.44-.994zm8.08-9.654c-.346 0-.71.043-1.016.33-.285.276-.43.618-.43 1.014s.151.74.44 1.029a1.45 1.45 0 0 0 1.047.431l.218.002h5.305c.345 0 .608.1.816.302.203.197.3.455.3.779l.015 4.301c0 .325-.102.572-.315.766-.216.194-.493.292-.84.292h-7.018c-.365 0-.643-.098-.865-.292-.214-.194-.317-.44-.317-.766l-.018-10.152c0-.379-.139-.714-.417-.996a1.387 1.387 0 0 0-1.023-.427c-.403 0-.755.148-1.05.437a1.4 1.4 0 0 0-.444 1.027v11.271c0 1.81.945 2.727 2.795 2.727l9.643.007c1.85 0 2.786-.913 2.786-2.706v-6.723c0-1.76-.892-2.623-2.721-2.646l-6.891-.007zm26.29 2.483c.284-.275.431-.617.431-1.009a1.4 1.4 0 0 0-.442-1.03c-.302-.299-.651-.45-1.042-.45H50.988c-1.8.038-2.7.928-2.686 2.643 0 .032-.06 3.734-.06 4.28v3.817c0 .381.145.721.43 1.002.284.283.629.424 1.014.424.404 0 .754-.14 1.04-.424.292-.295.443-.632.443-1.002l.006-2.518.014-2.735.004-1.963c0-.465.226-.703.67-.703l9.956-.002c.348 0 .708-.04 1.013-.33zM12.536 7.993c-.277-.272-.622-.407-1.046-.407H3.546c-.135.007-.254-.006-.31-.007a.51.51 0 0 1-.455-.246c-.27-.377-.85-.511-1.293-.511-.444 0-.85.172-1.146.487-.276.3-.332.62-.332 1.006v1.696c-.006.071-.01.145-.01.228v8.008c0 .384.15.722.442 1.013.292.286.643.43 1.047.43.4 0 .745-.138 1.023-.413.28-.275.42-.612.42-1.012v-6.766c0-.336.117-.626.321-.806.212-.193.484-.291.837-.294h7.442c.432 0 .752-.12 1.014-.37.287-.272.432-.613.432-1.009a1.394 1.394 0 0 0-.442-1.027z" fill="#fff"/><path d="M59.706 14.342c0-.432-.168-.8-.5-1.088a1.71 1.71 0 0 0-1.163-.427h-2.816c-.453 0-.844.146-1.167.427a1.387 1.387 0 0 0-.499 1.088v.003c0 .43.167.799.5 1.09.322.28.713.423 1.166.423h2.816c.452 0 .844-.143 1.163-.423.332-.291.5-.66.5-1.09v-.003zM77.829 0c-6.721 0-12.171 5.36-12.171 11.973 0 6.612 5.45 11.972 12.171 11.972 6.722 0 12.171-5.36 12.171-11.973C90 5.362 84.552 0 77.83 0zm-6.956 14.073a1.29 1.29 0 0 1-1.302 1.28 1.292 1.292 0 0 1-1.302-1.28c0-.707.585-1.282 1.302-1.282.72 0 1.302.575 1.306 1.282h-.004zm8.435.225c0 .865-.495 1.347-1.386 1.348l-4.46-.002c-.89 0-1.389-.485-1.391-1.358V9.07a.75.75 0 0 1 .235-.542.773.773 0 0 1 .555-.23.737.737 0 0 1 .542.227c.145.146.22.33.219.527l.01 4.698a.36.36 0 0 0 .113.285c.085.071.184.11.337.11l3.247.002a.46.46 0 0 0 .322-.112c.08-.072.115-.153.115-.285l-.008-1.99c0-.132-.036-.221-.109-.293a.416.416 0 0 0-.311-.112H74.784a.765.765 0 0 1-.553-.228.736.736 0 0 1-.23-.543.715.715 0 0 1 .229-.54c.165-.156.369-.178.535-.178l3.189.003c.88.001 1.365.471 1.356 1.32l-.002 3.11zm6.573-2.697c-.003-.054-.01-.071-.049-.106-.055-.045-.093-.06-.148-.06H81.99c-.274.01-.345.075-.394.27l.01 2.077c.003.128.038.206.109.271a.45.45 0 0 0 .319.106h4.277c.27 0 .625.01.868.244a.67.67 0 0 1 .196.49c0 .236-.057.421-.192.553-.197.187-.46.198-.77.2h-4.63c-1.075-.002-1.683-.59-1.685-1.63l.002-2.456-.002-.035c0-.488.132-.882.404-1.152.294-.293.72-.425 1.28-.425h3.896c1.101.001 1.711.558 1.713 1.586v.4c-.002 1.022-.644 1.627-1.713 1.618H82.9c-.157 0-.511.007-.765-.24a.723.723 0 0 1-.207-.53c0-.18.067-.346.196-.47.289-.275.733-.265.785-.269h2.777c.112.003.166-.018.166-.02.038-.028.034-.035.035-.042l-.005-.38z" fill="#fff"/></svg>