<svg width="34" height="34" viewBox="0 0 34 34" fill="none" xmlns="http://www.w3.org/2000/svg">
<path d="M23.9636 7.08484C24.0148 7.16289 24.1329 7.38178 24.178 7.46165C20.6376 7.34398 16.4814 8.54574 12.6353 11.073C8.47913 13.8046 5.69212 17.5782 4.51604 21.1554C4.21517 20.8152 4.05316 20.6378 3.85461 20.3018C2.8515 18.6025 2.75832 16.3356 3.55861 14.1436C4.76819 12.0212 6.98878 9.50971 10.4604 7.39946C12.3984 6.22148 14.3863 5.16605 16.3682 4.65571C19.6296 4.22768 22.5531 4.89411 23.9636 7.08484Z" fill="#000"/>
<path d="M32.6275 6.99767C29.7855 2.6441 23.6903 1.48482 16.8742 3.84203C20.3829 3.35783 23.4699 4.28021 24.9909 6.61226C27.5147 10.4786 24.2929 16.9083 18.3959 20.7752C12.4989 24.6421 5.66988 24.647 3.14734 20.7813C1.97778 18.9881 1.94146 16.6781 2.82478 14.3301C-0.215444 18.9396 -0.960882 23.9198 1.37207 27.4939C5.06541 33.1498 15.0509 33.1461 23.6804 27.4859C32.3099 21.8258 36.3178 12.6529 32.6275 6.99767Z" fill="#000"/>
</svg>
