<svg width="31" height="31" viewBox="0 0 31 31" fill="none" xmlns="http://www.w3.org/2000/svg">
<path d="M13.8333 9.5C13.8333 11.9853 11.8186 14 9.33331 14C6.84803 14 4.83331 11.9853 4.83331 9.5C4.83331 7.01472 6.84803 5 9.33331 5C11.8186 5 13.8333 7.01472 13.8333 9.5Z" fill="#000"/>
<path d="M25.8333 9.5C25.8333 11.9853 23.8186 14 21.3333 14C18.848 14 16.8333 11.9853 16.8333 9.5C16.8333 7.01472 18.848 5 21.3333 5C23.8186 5 25.8333 7.01472 25.8333 9.5Z" fill="#000"/>
<path d="M19.727 26C19.7971 25.5101 19.8333 25.0093 19.8333 24.5C19.8333 22.0472 18.9923 19.7909 17.5829 18.0036C18.6862 17.3653 19.9671 17 21.3333 17C25.4755 17 28.8333 20.3579 28.8333 24.5V26H19.727Z" fill="#000"/>
<path d="M9.33331 17C13.4754 17 16.8333 20.3579 16.8333 24.5V26H1.83331V24.5C1.83331 20.3579 5.19118 17 9.33331 17Z" fill="#000"/>
</svg>
