<svg width="31" height="31" viewBox="0 0 31 31" fill="none" xmlns="http://www.w3.org/2000/svg">
<path fill-rule="evenodd" clip-rule="evenodd" d="M17.2843 2.06938C17.9088 2.26621 18.3334 2.84528 18.3334 3.49999V11L24.3334 11C24.8927 11 25.4056 11.3112 25.6638 11.8073C25.9221 12.3034 25.883 12.902 25.5622 13.3602L15.0622 28.3602C14.6868 28.8965 14.0068 29.1274 13.3824 28.9306C12.758 28.7338 12.3334 28.1547 12.3334 27.5L12.3334 20H6.33338C5.77407 20 5.26121 19.6888 5.00291 19.1927C4.74461 18.6966 4.78379 18.098 5.10453 17.6398L15.6045 2.63979C15.98 2.10344 16.6599 1.87255 17.2843 2.06938Z" fill="#000"/>
</svg>
