<svg width="31" height="31" viewBox="0 0 31 31" fill="none" xmlns="http://www.w3.org/2000/svg">
<path fill-rule="evenodd" clip-rule="evenodd" d="M15.3333 27.5C21.9607 27.5 27.3333 22.1274 27.3333 15.5C27.3333 8.87258 21.9607 3.5 15.3333 3.5C8.7059 3.5 3.33331 8.87258 3.33331 15.5C3.33331 22.1274 8.7059 27.5 15.3333 27.5ZM20.894 13.5607C21.4798 12.9749 21.4798 12.0251 20.894 11.4393C20.3082 10.8536 19.3584 10.8536 18.7727 11.4393L13.8333 16.3787L11.894 14.4393C11.3082 13.8536 10.3584 13.8536 9.77265 14.4393C9.18687 15.0251 9.18687 15.9749 9.77265 16.5607L12.7727 19.5607C13.3584 20.1464 14.3082 20.1464 14.894 19.5607L20.894 13.5607Z" fill="#000"/>
</svg>
