<svg width="37" height="36" viewBox="0 0 37 36" fill="none" xmlns="http://www.w3.org/2000/svg">
<path d="M18.5009 0C8.28403 0 0 8.05973 0 18C0 27.9421 8.28403 36 18.5009 36C28.7178 36 37 27.9421 37 18C37 8.05973 28.7188 0 18.5009 0ZM7.92712 21.1586C7.92712 22.2229 7.04365 23.0833 5.94789 23.0833C4.85769 23.0833 3.96865 22.2229 3.96865 21.1586C3.96865 20.0943 4.85769 19.2311 5.94789 19.2311C7.04365 19.2311 7.92711 20.0943 7.93268 21.1586H7.92712ZM20.7481 21.4968C20.7481 22.7974 19.9962 23.5208 18.6409 23.5235L11.8624 23.5208C10.5098 23.519 9.75153 22.7911 9.74782 21.4779V13.6364C9.74782 13.3289 9.87483 13.0438 10.1047 12.822C10.3346 12.5956 10.6276 12.4765 10.9483 12.4765C11.2654 12.4747 11.5528 12.5938 11.7725 12.8175C11.9931 13.0366 12.1071 13.3117 12.1053 13.6094L12.1201 20.6724C12.122 20.87 12.1776 20.9917 12.2925 21.1009C12.4214 21.2082 12.5716 21.2659 12.8052 21.2659L17.7408 21.2686C17.9558 21.2659 18.1079 21.2091 18.2293 21.1009C18.3507 20.9926 18.4045 20.8709 18.4045 20.6724L18.3915 17.6798C18.3915 17.4823 18.3368 17.3479 18.2265 17.2406C18.1069 17.1278 17.9697 17.0728 17.7537 17.071H14.0725H14.0233H13.8713C13.5505 17.0728 13.2632 16.9538 13.0314 16.7283C12.8033 16.5046 12.6763 16.2232 12.6819 15.9129C12.6763 15.6017 12.7978 15.3203 13.0295 15.1012C13.2808 14.8667 13.5904 14.8324 13.8426 14.8324L18.69 14.8369C20.0278 14.8396 20.7648 15.5458 20.7509 16.823L20.7481 21.4968ZM30.7388 17.4417C30.7351 17.3605 30.7239 17.3344 30.6646 17.283C30.5812 17.2144 30.5237 17.1928 30.4403 17.1928H24.8252C24.409 17.2081 24.3005 17.3055 24.2263 17.5968L24.2412 20.7212C24.2449 20.9124 24.2986 21.0305 24.4062 21.1279C24.5258 21.2334 24.6741 21.2867 24.891 21.2876H31.2589C31.3043 21.2867 31.3516 21.2867 31.3933 21.2867C31.8021 21.2876 32.3435 21.302 32.7115 21.6538C32.909 21.845 33.01 22.102 33.01 22.3915C33.01 22.746 32.9229 23.0238 32.7189 23.2222C32.4186 23.5036 32.02 23.5199 31.5472 23.5226C31.4925 23.5226 31.4294 23.5226 31.3701 23.5226H31.1569H24.51C22.8766 23.5199 21.9514 22.636 21.9495 21.0729L21.9514 17.3804L21.9495 17.3272C21.9477 16.593 22.1488 16.0013 22.5632 15.5945C23.01 15.1553 23.6571 14.956 24.51 14.956H30.431C32.1043 14.9578 33.0313 15.7948 33.0351 17.3416V17.9423C33.0313 19.4792 32.0552 20.3883 30.431 20.3748H26.2065C25.9673 20.3739 25.4296 20.3847 25.044 20.014C24.8335 19.8093 24.7288 19.5315 24.7288 19.2167C24.7288 18.9461 24.8317 18.6963 25.0273 18.5096C25.4658 18.0974 26.1407 18.1118 26.2204 18.1064H30.4412C30.6118 18.1109 30.6943 18.0794 30.6943 18.0749C30.7508 18.0343 30.7453 18.0225 30.7471 18.0126L30.7388 17.4417Z" fill="#000"/>
</svg>
