<svg width="31" height="31" viewBox="0 0 31 31" fill="none" xmlns="http://www.w3.org/2000/svg">
<path fill-rule="evenodd" clip-rule="evenodd" d="M27.3333 20V8C27.3333 6.34315 25.9902 5 24.3333 5H6.33331C4.67646 5 3.33331 6.34315 3.33331 8V20C3.33331 21.6569 4.67646 23 6.33331 23H10.8333L15.3333 27.5L19.8333 23H24.3333C25.9902 23 27.3333 21.6569 27.3333 20ZM7.83331 11C7.83331 10.1716 8.50489 9.5 9.33331 9.5H21.3333C22.1617 9.5 22.8333 10.1716 22.8333 11C22.8333 11.8284 22.1617 12.5 21.3333 12.5H9.33331C8.50489 12.5 7.83331 11.8284 7.83331 11ZM9.33331 15.5C8.50489 15.5 7.83331 16.1716 7.83331 17C7.83331 17.8284 8.50489 18.5 9.33331 18.5H13.8333C14.6617 18.5 15.3333 17.8284 15.3333 17C15.3333 16.1716 14.6617 15.5 13.8333 15.5H9.33331Z" fill="#000"/>
</svg>
