<svg fill="none" viewBox="0 0 374 290" xmlns="http://www.w3.org/2000/svg"><clipPath id="a"><path d="M0 0h374v290H0z"/></clipPath><g clip-path="url(#a)"><path d="M186.812.17a160.903 160.903 0 0 0-61.339 12.126 160.266 160.266 0 0 0-52 34.569A159.371 159.371 0 0 0 38.734 98.61a158.735 158.735 0 0 0-12.184 61.036c0 53.84 26.829 101.48 67.918 130.354h184.687a159.638 159.638 0 0 0 49.943-56.932 158.767 158.767 0 0 0 17.979-73.422C347.077 71.588 275.323.17 186.812.17zm-59.876 102.666a17.177 17.177 0 0 1-1.94-2.293l121.687 120.046a16.9 16.9 0 0 1 1.939 2.293z" fill="#91dbdd"/><path d="M124.996 100.564a17.114 17.114 0 0 0 1.94 2.293l121.686 120.025a16.9 16.9 0 0 0-1.939-2.293z" fill="#c9dfeb"/><path d="M67.468 266.078a156.731 156.731 0 0 0 6.937 7.21c.279-.614.566-1.223.887-1.816 7.498-13.883 14.91-9.621 21.385-17.419s-1.623-24.98 4.852-31.759c6.475-6.78 24.534-2.033 29.715-10.172 5.182-8.139-1.773-18.988 1.975-26.347 3.113-6.106 14.611-3.409 22.786-6.57l-56.93-61.362a10.941 10.941 0 0 1-2.914-7.882 10.95 10.95 0 0 1 3.54-7.624 11.06 11.06 0 0 1 7.921-2.9 11.05 11.05 0 0 1 7.662 3.522l169.447 182.656c37.839-29.168 62.201-74.822 62.201-126.131C346.932 71.401 275.177 0 186.666 0S26.4 71.4 26.4 159.475a158.169 158.169 0 0 0 19.108 75.581c6.124 5.275 15.185 17.518 21.96 31.022z" fill="#72b1d6" opacity=".39"/><path d="M172.504 219.639c-2.89 11.931-13.39 8.42-19.099 11.799-5.708 3.38 3.914 20.271-1.242 30.681-4.8 9.681-14.033 6.298-17.87 12.916-1.961 3.383.595 8.684 2.433 14.978h122.046l-86.73-93.521c-.527 6.141 2.569 14.437.462 23.147z" fill="#72b1d6" opacity=".39"/><path d="m288.795 290-4.064-4.385a155.126 155.126 0 0 1-5.965 4.385z" fill="#ceeff1"/><path d="M99.7 102.328a10.956 10.956 0 0 0-3.538 7.625 10.944 10.944 0 0 0 2.913 7.882l56.93 61.361a13.115 13.115 0 0 0 4.509-2.812c7.61-7.474 14.598-8.386 19.506-3.217 4.548 4.789-.343 11.85-5.798 17.833-1.392 1.525-2 3.379-2.18 5.484L258.78 290h19.998a172.47 172.47 0 0 0 5.966-4.385l-169.46-182.664a11.055 11.055 0 0 0-7.662-3.522 11.064 11.064 0 0 0-7.921 2.899z" fill="#ceeff1"/><path d="M72.71 278.154a113.243 113.243 0 0 0-5.242-12.076 159.808 159.808 0 0 1-21.96-31.022 15.348 15.348 0 0 0-3.344-2.301c11.09 13.721 14.79 25.657 15.99 29.236-4.895 2.783-9.511-14.718-14.35-17.501-4.84-2.782-8.034-2.782-11.233-6.362-3.199-3.579-8.59-14.718-11.194-12.711-2.603 2.007 1.799 7.756 1.799 10.142s-2.398 7.559-.201 11.931c2.196 4.372 6.196 6.111 7.001 8.318s-1.002 13.074 1.996 16.483c2.997 3.408 12.076 7.192 11.832 10.972-6.62-5.433-25.223-20.079-37.616-22.265 13.39 6.963 29.98 19.815 35.175 26.633-14.59-8.292-28.182-13.73-37.376-13.329 12.466 1.99 29.89 12.685 31.779 15.472-10.393-4.926-13.592-3.336-13.592-3.336a38.467 38.467 0 0 1 8.136 3.545h41.753a31.426 31.426 0 0 1 .646-11.829z" fill="#174290"/><path d="M45.508 235.056a159.808 159.808 0 0 0 21.96 31.022c-6.775-13.504-15.836-25.746-21.96-31.022z" fill="#174290"/><g fill="#51c1c7"><path d="M94.562 290a160.973 160.973 0 0 1-20.157-16.712 29.335 29.335 0 0 0-1.713 4.866A71.505 71.505 0 0 1 75.955 290z"/><path d="M136.726 290c-1.833-6.294-4.403-11.595-2.433-14.978 3.854-6.618 13.07-3.234 17.87-12.916 5.139-10.397-4.466-27.271 1.242-30.68 5.709-3.409 16.209.136 19.099-11.8 2.107-8.718-.989-17.006-.462-23.147l-16.037-17.274c-8.175 3.17-19.673.464-22.787 6.57-3.747 7.359 3.208 18.208-1.974 26.347-5.181 8.139-23.24 3.409-29.715 10.172-6.474 6.762 1.623 23.961-4.852 31.759-6.474 7.798-13.887 3.536-21.385 17.419a28.507 28.507 0 0 0-.887 1.816A160.973 160.973 0 0 0 94.562 290z"/><path d="M174.222 191.008c5.455-5.966 10.346-13.043 5.798-17.833-4.908-5.169-11.896-4.261-19.506 3.217a13.117 13.117 0 0 1-4.509 2.813l16.037 17.287c.18-2.105.788-3.958 2.18-5.484zM72.709 278.154A31.428 31.428 0 0 0 72.041 290h3.931a71.486 71.486 0 0 0-3.263-11.846z"/></g><path d="M301.441 271.898 98.964 53.623a11.027 11.027 0 0 0-3.479-2.52 11.074 11.074 0 0 0-12.104 1.898 10.978 10.978 0 0 0-2.532 3.462 10.93 10.93 0 0 0 1.907 12.044l202.476 218.271c4.132 4.453 9.776 2.655 14.252-1.453 4.475-4.107 6.085-8.974 1.957-13.427z" fill="#b3e8e8" opacity=".7"/><path d="M189.115 136.784c17.297 21.801 52.754 53.406 58.758 21.69l31.475-6.541c11.669 40.123-20.469 78.981-80.263 45.339-69.297-38.986-22.371-76.109-9.97-60.488z"/><path d="M342.118 180.875c4.638 2.795 1.657 6.247 1.191 10.137-.467 3.891 4.513 15.379.972 20.416-3.542 5.037-16.337 7.542-17.939 11.113-1.601 3.571 6.942 13.355 3.143 21.093-3.798 7.738-9.883 10.359-10.804 15.511-.921 5.151 6.167 9.8 4.762 17.262-1.405 7.461-20.962 16.107-33.158 11.535s-23.904-23.658-17.506-31.533 16.401-5.71 20.628-11.535-5.636-14.582-1.353-21.511c5.276-8.603 17.202-7.337 19.814-11.931s-2.441-15.046 1.049-19.175 10.068-3.835 14.958-5.148c4.891-1.312 9.571-9.063 14.243-6.234z" fill="#91dbdd"/><path d="M342.118 180.875c4.638 2.795 1.657 6.247 1.191 10.137-.467 3.891 4.513 15.379.972 20.416-3.542 5.037-16.337 7.542-17.939 11.113-1.601 3.571 6.942 13.355 3.143 21.093-3.798 7.738-9.883 10.359-10.804 15.511-.921 5.151 6.167 9.8 4.762 17.262-1.405 7.461-20.962 16.107-33.158 11.535s-23.904-23.658-17.506-31.533 16.401-5.71 20.628-11.535-5.636-14.582-1.353-21.511c5.276-8.603 17.202-7.337 19.814-11.931s-2.441-15.046 1.049-19.175 10.068-3.835 14.958-5.148c4.891-1.312 9.571-9.063 14.243-6.234z" fill="#51c1c7"/><path d="M288.015 287.124h-.047a.21.21 0 0 1-.158-.247c5.815-25.359 35.046-82.8 49.73-101.136a.207.207 0 0 1 .139-.077.203.203 0 0 1 .153.043.227.227 0 0 1 .053.062.216.216 0 0 1 .018.16.197.197 0 0 1-.037.072c-14.658 18.323-43.847 75.649-49.649 100.991a.207.207 0 0 1-.202.132z" fill="#174290"/><path d="M328.363 199.688a.207.207 0 0 1-.147-.061.215.215 0 0 1-.044-.068.196.196 0 0 1-.014-.08c.068-4.346-1.957-8.292-2.3-8.654a.206.206 0 0 1 0-.294.215.215 0 0 1 .296 0c.372.396 2.483 4.402 2.411 8.948a.2.2 0 0 1-.058.146.198.198 0 0 1-.144.063zm-7.618 12.971a.217.217 0 0 1-.212-.211c0-.027.005-.054.016-.079a.2.2 0 0 1 .046-.068c3.088-2.94 12.419-5.855 16.273-6.315.055-.006.11.01.154.044a.21.21 0 0 1 .077.139.2.2 0 0 1-.103.206.225.225 0 0 1-.077.025c-3.734.426-13.082 3.362-16.058 6.2a.215.215 0 0 1-.116.059zm-105.418 6.396a.218.218 0 0 1-.2-.291.206.206 0 0 1 .114-.118.211.211 0 0 1 .082-.017l8.655-.187a.208.208 0 0 1 .152.059.212.212 0 0 1-.144.367l-8.654.187zm10.042 3.085a.237.237 0 0 1-.115-.034.212.212 0 0 1-.064-.294l5.198-8.151a.214.214 0 0 1 .36.23l-5.199 8.151a.2.2 0 0 1-.18.098z" fill="#174290"/><path d="M244.263 259.554c-1.824-4.922.677-9.716-1.229-13.159s-4.321-4.657-5.52-7.244c-1.199-2.586 1.328-3.409-.282-7.581-1.611-4.171-.373-6.775.663-7.35 1.037-.575 2.998.814 4.03 4.15 1.032 3.337 4.711 2.297 6.423 5.148 1.713 2.851 1.713 6.298 3.285 9.2s4.766 2.301 7.875 6.681c3.109 4.381.985 9.469 2.998 13.044 2.012 3.575 7.528 3.733 10.106 8.471 2.578 4.739.274 13.508-7.999 16.15-8.274 2.642-12.629-1.219-14.47-6.963-1.521-4.755 2.012-7.576 1.284-11.023-.728-3.448-5.875-6.051-7.164-9.524z" fill="#51c1c7"/><path d="M244.263 259.554c-1.824-4.922.677-9.716-1.229-13.159s-4.321-4.657-5.52-7.244c-1.199-2.586 1.328-3.409-.282-7.581-1.611-4.171-.373-6.775.663-7.35 1.037-.575 2.998.814 4.03 4.15 1.032 3.337 4.711 2.297 6.423 5.148 1.713 2.851 1.713 6.298 3.285 9.2s4.766 2.301 7.875 6.681c3.109 4.381.985 9.469 2.998 13.044 2.012 3.575 7.528 3.733 10.106 8.471 2.578 4.739.274 13.508-7.999 16.15-8.274 2.642-12.629-1.219-14.47-6.963-1.521-4.755 2.012-7.576 1.284-11.023-.728-3.448-5.875-6.051-7.164-9.524z" fill="#0ca4aa"/><path d="M265.503 286.949a.21.21 0 0 1-.184-.111c-5.014-8.765-24.435-54.398-27.629-62.52a.205.205 0 0 1 .004-.164.22.22 0 0 1 .048-.069.222.222 0 0 1 .153-.059c.028 0 .056.006.081.018a.202.202 0 0 1 .112.116c3.19 8.118 22.593 53.713 27.599 62.469a.212.212 0 0 1 .024.162.207.207 0 0 1-.101.128.201.201 0 0 1-.107.03z" fill="#174290"/><path d="M245.552 257.031a.216.216 0 0 1-.156-.052.214.214 0 0 1 .126-.374l5.811-.797a.215.215 0 1 1 .056.426l-5.807.797zm7.212 2.408a.214.214 0 0 1-.211-.175.211.211 0 0 1 .031-.158l5.211-7.521a.217.217 0 0 1 .136-.089.212.212 0 0 1 .219.094.215.215 0 0 1 .03.161.198.198 0 0 1-.034.077l-5.19 7.517a.224.224 0 0 1-.083.073.229.229 0 0 1-.109.021zm8.843 19.669a.2.2 0 0 1-.146-.059.207.207 0 0 1-.063-.152c0-.028.005-.055.016-.081a.221.221 0 0 1 .047-.07l6.295-6.686a.22.22 0 0 1 .304 0 .21.21 0 0 1 .063.152.21.21 0 0 1-.063.151l-6.295 6.69a.223.223 0 0 1-.158.055zm-1.045-2.245-8.064-.056a.218.218 0 0 1-.214-.217.212.212 0 0 1 .214-.209l8.064.056a.214.214 0 0 1 .214.213.215.215 0 0 1-.214.213zm4.012-39.203c2.188 9.988 4.385 23.01 4.539 30.553.155 7.542 25.562 11.437 25.108 1.955-.454-9.481-2.57-29.048-2.42-32.513.15-3.464-6.505-15.502-17.245-12.642-10.74 2.859-11.498 5.722-9.982 12.647z" fill="#174290"/><path d="M290.808 231.187c1.644 4.41 1.742 17.744 1.742 17.744s-15.27-4.914-26.828-4.338c0 0-.797-6.469-1.422-8.893-2.548-9.857-.569-77.162 26.508-4.513z" fill="#0ca4aa"/><path d="M211.876 185.809c19.27-6.097 70.354-30.782 96.39 58.937-18.473 4.828-27.141-9.166-54.612-2.331 3.597-11.079-8.337-31.371-52.205 1.534-43.869 32.905-45.487-40.434 10.427-58.14z" fill="#fdc300"/><path d="M213.645 177.513a83.05 83.05 0 0 1 4.787 12.063c10.385 33.515-5.447 61.272-42.395 62.112-15.716.358-20.431-6.473-25.766-13.781 32.331-10.031 61.275-39.433 63.374-60.394z" fill="#174290"/><path d="M268.809 263.299c4.711 4.935 15.554 6.605 22.268 1.453-3.79-5.437-.582-10.082 13.275-4.133 13.858 5.949 15.888 14.062 15.888 14.062s6.196 2.829 7.798 4.568c4.372-.852 9.421 1.913 10.761 5.442 1.341 3.528-1.601 5.07-3.605 5.07h-74.303c-1.897 0-2.843-.255-3.353-3.08-.509-2.826-.856-11.821 1.019-11.893a38.027 38.027 0 0 1 3.79.072s3.366-8.808 6.462-11.561z" fill="#ef7e5b"/><path d="M307.564 289.97a.207.207 0 0 1-.12-.034.236.236 0 0 1-.109-.142.236.236 0 0 1 .024-.178c5.224-8.867 18.114-10.38 20.64-10.593a.237.237 0 0 1 .248.304.265.265 0 0 1-.044.081.252.252 0 0 1-.072.058.254.254 0 0 1-.089.026c-2.492.209-15.168 1.704-20.272 10.363a.244.244 0 0 1-.206.115zm-17.651 0a.24.24 0 0 1-.123-.034.239.239 0 0 1-.087-.094c-1.927-3.737-6.591-7.47-13.143-10.512-5.896-2.74-11.515-4.129-14.238-4.261a.23.23 0 0 1-.21-.157.232.232 0 0 1 .066-.251.239.239 0 0 1 .169-.061c6.274.303 23.275 6.294 27.775 15.029a.232.232 0 0 1-.209.341zm30.31-15.046a.265.265 0 0 1-.124-.034c-3.919-2.425-22.341-11.211-25.814-12.174-1.208.958-1.906 1.431-2.467 1.815-.214.14-.428.272-.608.426a.24.24 0 0 1-.368-.139.22.22 0 0 1-.002-.092.236.236 0 0 1 .096-.153c.201-.144.398-.277.617-.426.569-.383 1.284-.852 2.526-1.862a.257.257 0 0 1 .206-.047c3.19.797 22.084 9.801 26.062 12.26a.224.224 0 0 1 .106.146.233.233 0 0 1-.029.178.24.24 0 0 1-.201.102z" fill="#174290"/><path d="M312.973 274.472a1.971 1.971 0 0 1-1.985-1.967c.002-.347.095-.687.272-.986 1.13-1.922 2.959-6.093 3.036-9.114a1.948 1.948 0 0 1 .613-1.372 1.973 1.973 0 0 1 1.408-.537 1.975 1.975 0 0 1 1.378.61 1.96 1.96 0 0 1 .541 1.401c-.107 4.078-2.386 8.978-3.576 10.998a1.965 1.965 0 0 1-1.687.967zm-7.066-2.808a1.974 1.974 0 0 1-1.721-.98 1.947 1.947 0 0 1 .008-1.973c1.131-1.922 2.959-6.093 3.036-9.115.014-.52.234-1.013.613-1.371a1.98 1.98 0 0 1 2.786.073c.36.377.555.881.541 1.401-.107 4.078-2.385 8.978-3.576 10.998a1.98 1.98 0 0 1-1.687.967zm-7.066-2.808a1.964 1.964 0 0 1-1.984-1.968c.001-.346.095-.686.271-.985 1.131-1.922 2.959-6.094 3.036-9.115.014-.52.235-1.013.614-1.371a1.978 1.978 0 0 1 2.786.072c.359.378.554.882.54 1.401-.107 4.083-2.385 8.979-3.576 10.999a1.973 1.973 0 0 1-1.687.967z" fill="#174290"/><path d="M220.933 181.804c.641 4.088.962 8.22.959 12.357 0 33.549-22.332 54.48-56.334 44.884-14.465-4.083-16.842-11.646-19.651-19.823 32.387-.086 67.177-18.843 75.026-37.418z" fill="#fdc300"/><path d="M242.944 145.827c-1.923-3.362-11.776-4.649-12.813-13.116-1.036-8.467 4.476-9.959 5.996-11.633 1.52-1.675 4.029-2.659 5.515-1.841-1.194-4.142 5.006-8.949 6.424-10.274 1.417-1.325 10.098-7.892 13.553 2.983 6.282-3.558 8.933 2.557 6.981 7.133 4.389-4.687 11.245-.677 8.273 5.412 4.179.746 4.359 5.241 1.936 8.135-2.142 2.556-4.244 6.093-2.651 11.82l-30.781 7.947a77.117 77.117 0 0 0-2.433-6.566z" fill="#174290"/><path d="M257.367 137.083a.233.233 0 0 1-.137-.044.232.232 0 0 1-.086-.114c-.993-2.881-3.507-5.471-6.903-7.112-3.55-1.704-7.562-2.131-10.474-1.133a.248.248 0 0 1-.268-.028.235.235 0 0 1-.087-.163.244.244 0 0 1 .054-.176.254.254 0 0 1 .074-.06c2.762-2.207 4.102-4.218 3.978-5.965-.111-1.59-1.43-2.536-1.991-2.868a.236.236 0 0 1-.084-.322.241.241 0 0 1 .144-.108.243.243 0 0 1 .179.025c.63.371 2.099 1.428 2.223 3.243.124 1.704-.989 3.622-3.31 5.663 2.89-.635 6.526-.111 9.768 1.457 3.507 1.705 6.111 4.381 7.143 7.381a.23.23 0 0 1 .012.09.234.234 0 0 1-.158.208z" fill="#0ca4aa"/><path d="M244.55 122.595a4.23 4.23 0 0 1-.856-.081.232.232 0 0 1-.085-.037.237.237 0 0 1-.065-.065.232.232 0 0 1-.032-.177.22.22 0 0 1 .036-.085.238.238 0 0 1 .244-.097c3.066.648 6.582-2.48 7.939-4.985a.24.24 0 0 1 .393-.035.253.253 0 0 1 .043.081.26.26 0 0 1 .008.092.245.245 0 0 1-.028.088c-1.863 3.456-5.182 5.301-7.597 5.301zm9.819 4.078c-.4.03-.803-.02-1.184-.147a2.995 2.995 0 0 1-1.034-.595c-1.255-1.248-.428-3.549-.407-3.647.685-1.385 3.041-3.682 5.315-5.906a56.107 56.107 0 0 0 4.402-4.59.238.238 0 0 1 .392.029.238.238 0 0 1-.02.261 56.164 56.164 0 0 1-4.466 4.636c-2.248 2.195-4.574 4.462-5.207 5.753-.634 1.291-.737 2.096.304 3.132.856.852 2.83.797 5.657-.213a.236.236 0 0 1 .25.149.23.23 0 0 1 .004.153.229.229 0 0 1-.092.124c-1.248.5-2.57.79-3.914.861zm7.113 5.799c-1.803 0-2.907-.426-3.353-1.304-1.036-2.028 2.227-5.595 2.51-5.902.188-.272 1.002-.907 2.877-2.339 1.803-1.381 4.043-3.098 4.916-4.023a.231.231 0 0 1 .263-.074.243.243 0 0 1 .083.05.236.236 0 0 1-.003.344c-.895.959-3.156 2.685-4.972 4.074a32.757 32.757 0 0 0-2.77 2.228.18.18 0 0 1-.035.047c-.933.993-3.203 3.903-2.445 5.382.475.929 2.141 1.244 4.848.912a.234.234 0 0 1 .261.204.243.243 0 0 1-.006.093.226.226 0 0 1-.041.082.227.227 0 0 1-.159.09c-.654.085-1.314.13-1.974.136zm5.032-1.381a.243.243 0 0 1-.141-.042.242.242 0 0 1-.047-.333c.509-.677 3.721-2.556 7.549-4.751 1.285-.737 2.394-1.376 2.869-1.683a.24.24 0 0 1 .178-.034c.03.006.059.018.085.035a.224.224 0 0 1 .065.065.243.243 0 0 1 .035.177.237.237 0 0 1-.101.149c-.489.32-1.606.959-2.895 1.705-2.754 1.58-6.912 3.967-7.404 4.623a.23.23 0 0 1-.193.089z" fill="#0ca4aa"/><path d="m245.376 152.282 30.76-8.096c.24.841.535 1.665.882 2.467a64.219 64.219 0 0 1 2.202 5.911l-31.942 7.989a49.722 49.722 0 0 0-1.902-8.271z" fill="#ef7e5b"/><path d="M69.802 259.882c7.023 2.522 22.028 11.356 27.925.29 5.896-11.067-2.364-15.29-4.814-16.513-9.27-4.623-17.193-9.417-19.698-11.769 0 0-9.94-2.446-12.539 10.841-2.6 13.286 9.126 17.151 9.126 17.151z" fill="#174290"/><path d="M99.808 245.973c-4.03-2.13-13.4-6.055-13.4-6.055l-15.257 20.48s10.277 6.119 15.943 8.16c15.048 5.437 45.782-5.024 12.714-22.585z" fill="#0ca4aa"/><path d="M151.037 223.998c-3.571 11.885-17.523 44.159-60.762 11.322-1.284 15.247-19.797 22.418-22.075 35.551 7.053 0 44.378 18.797 73.279 18.797 25.942 0 61.914-25.141 78.452-86.175 11.639-42.957-60.929-5.991-68.894 20.505z" fill="#fdc300"/><path d="M73.198 231.89c-8.282 4.261-9.46 15.315-7.319 21.387 10.505-1.939 4.71 6.886 2.706 10.406-3.854 8.036-11.72 13.269-17.728 14.986 6.338 3.277 5.764 9.912 4.363 9.878-1.4-.034-6.941 0-14.825 0-6.308-5.65-5.995-11.301-4.89-15.694 1.104-4.393 13.566-49.911 15.771-56.972 3.627-.942 12.62 2.199 12.774 3.358.155 1.159-.787 4.018-.787 4.018s7.395 6.281 9.935 8.633z" fill="#ef7e5b"/><g fill="#174290"><path d="M36.87 279.888a.235.235 0 0 1-.222-.162.23.23 0 0 1 .012-.18.228.228 0 0 1 .138-.118c3.524-1.168 9.978-1.624 14.093-.993.03.005.06.015.087.031a.234.234 0 0 1 .11.238.23.23 0 0 1-.174.192.255.255 0 0 1-.092.004c-4.055-.618-10.41-.175-13.874.975a.225.225 0 0 1-.077.013z"/><path d="M45.902 278.623a.217.217 0 0 1-.111-.03c-2.57-1.389-7.122-3.972-7.164-3.997a.243.243 0 1 1 .23-.426c.048.025 4.587 2.603 7.157 3.992a.24.24 0 0 1 .098.32.236.236 0 0 1-.21.141zm-3.16-32.172a.236.236 0 0 1-.233-.196.233.233 0 0 1 .156-.26c11.001-3.801 19.48-19.823 20.37-22.806a.238.238 0 0 1 .437-.044c.03.056.036.12.018.18-.904 3.021-9.503 19.256-20.671 23.113zm6.856 32.304a.237.237 0 0 1-.232-.281.236.236 0 0 1 .065-.12c5.567-5.561 13.39-16.278 16.487-20.624a2.9 2.9 0 0 0 .278-2.868 12.731 12.731 0 0 1-.544-1.521.228.228 0 0 1 .077-.248.24.24 0 0 1 .334.034.23.23 0 0 1 .043.082c.144.499.32.989.527 1.466a3.393 3.393 0 0 1-.33 3.328c-3.105 4.359-10.924 15.097-16.538 20.684a.252.252 0 0 1-.077.051.253.253 0 0 1-.09.017z"/><path d="M60.646 281.899a1.936 1.936 0 0 1-.856-.191c-3.717-1.764-7.28-5.83-8.642-7.73a1.957 1.957 0 0 1 .505-2.675 1.984 1.984 0 0 1 2.707.395c1.284 1.807 4.376 5.16 7.125 6.469a1.96 1.96 0 0 1 1.08 2.209 1.96 1.96 0 0 1-.698 1.101 1.974 1.974 0 0 1-1.238.422zm5.379-7.099a1.936 1.936 0 0 1-.857-.191c-3.717-1.765-7.28-5.83-8.642-7.73a1.959 1.959 0 0 1-.065-2.179 1.965 1.965 0 0 1 1.23-.871 1.99 1.99 0 0 1 1.487.249c.22.137.41.315.56.525 1.285 1.803 4.373 5.156 7.126 6.464.406.191.734.514.93.916a1.95 1.95 0 0 1-.549 2.395 1.974 1.974 0 0 1-1.237.422zm4.3-6.289a1.95 1.95 0 0 1-.857-.192c-3.717-1.768-7.28-5.829-8.642-7.73a1.957 1.957 0 0 1 1.164-3.049 1.971 1.971 0 0 1 2.048.774c1.284 1.802 4.372 5.156 7.126 6.468.403.192.729.515.924.916a1.95 1.95 0 0 1-.549 2.387 1.98 1.98 0 0 1-1.232.426h.017z"/></g><path d="M159.465 126.183c31.642 0 56.385 23.436 61.468 55.625-7.849 18.575-42.639 37.328-75.022 37.435-2.295-6.677-4.646-14.488-13.296-23.616-49.324-52.089-8.723-69.444 26.85-69.444z"/><path d="M151.641 118.146c6.369 0 11.532-5.138 11.532-11.475 0-6.338-5.163-11.476-11.532-11.476s-11.532 5.138-11.532 11.476c0 6.337 5.163 11.475 11.532 11.475z" fill="#fdc300"/><path d="M167.617 122.025c4.037-3.489 3.287-10.925-1.674-16.609-4.962-5.683-12.257-7.462-16.294-3.973-4.037 3.49-3.287 10.926 1.675 16.61 4.961 5.683 12.256 7.462 16.293 3.972z" fill="#174290"/><path d="M131.968 138.088c9.031 5.54 13.331 16.231 18.795 23.637 12.496 16.926 29.484 39.957 36.755 18.809l29.12-1.704c3.944 41.359-30.966 74.865-78.85 32.653-55.503-48.935-14.355-90.691-5.82-73.395z" fill="#028489"/><path d="m186.281 174.04 28.73-3.371c.075.86.204 1.714.385 2.557a77.8 77.8 0 0 1 1.011 6.162l-29.758 3.076a55.02 55.02 0 0 0-.368-8.424z" fill="#ef7e5b"/><path d="M196.901 210.401a12.04 12.04 0 0 1-4.818-.963 11.98 11.98 0 0 1-4.025-2.804.64.64 0 0 1 .483-1.081.642.642 0 0 1 .45.199c4.749 4.981 10.775 3.255 13.147 2.28 5.164-2.131 8.843-6.639 8.749-10.747-.082-3.486-2.792-6.285-7.837-8.096-15.313-5.485-23.553-11.369-25.951-18.515-1.713-5.161-.449-10.875 3.914-17.471 4.993-7.547 20.71-6.737 35.903-5.966 16.127.827 32.798 1.683 35.222-7.551 1.713-6.455 1.379-11.032-.942-13.597-2.505-2.77-6.633-2.182-6.676-2.178a.65.65 0 0 1-.741-.541.647.647 0 0 1 .544-.737c.197-.03 4.839-.707 7.819 2.557 2.638 2.906 3.054 7.879 1.242 14.786-2.689 10.227-19.895 9.375-36.532 8.501-14.834-.758-30.177-1.551-34.768 5.386-4.128 6.243-5.362 11.595-3.769 16.363 2.257 6.742 10.278 12.358 25.168 17.714 5.511 1.973 8.594 5.263 8.688 9.264.103 4.619-3.909 9.647-9.541 11.961a15.142 15.142 0 0 1-5.729 1.236zm41.247-90.849c-.219.051-17.031-14.646-7.708-30.054a.633.633 0 0 1 .396-.29.643.643 0 0 1 .789.716.619.619 0 0 1-.085.234c-8.761 14.488 7.28 28.282 7.434 28.418.155.137.429.426.287.533a7.07 7.07 0 0 1-1.113.443z" fill="#fff"/><path d="M186.28 174.04s-9.279-7.892-9.93-15.387c-.321-3.695 1.259-9.179 3.897-9.315a5.993 5.993 0 0 1 4.667 1.905c.159.17.275.281.309.281 2.338 0-.304-11.382 5.811-11.846 4.051-.307 4.462 3.494 4.462 3.494s4.351-5.944 9.849 0c0 0 4.535-4.001 7.443 1.001 0 0 1.927-1.342 4.137 1.245 2.209 2.586 3.635 20.7-1.923 25.251z" fill="#174290"/><path d="m157.876 98.89-.343 2.369a2.155 2.155 0 0 1-.651 1.242c-.349.33-.8.535-1.28.582-2.946.302-8.479 2.407-5.477 14.351l-6.137-8.923 1.341-7.035 5.066-4.747 7.481 2.16z" fill="#fdc300"/><path d="M226.778 10.598c-23.124-2.847-39.495 4.5-49.555 17.39l21.84 15.4c4.963-6.537 12.56-9.886 21.048-8.843 8.016.99 13.361 5.46 12.586 11.715-1.452 11.73-24.577 14.121-27.112 34.605a15.607 15.607 0 0 0-5.066 9.864c-1.126 9.073 5.186 17.314 15.716 18.609 10.531 1.295 18.843-5.143 19.96-14.211a15.434 15.434 0 0 0-2.629-10.913c1.897-14.292 28.006-14.765 31.034-39.11 2.385-19.072-13.618-31.524-37.822-34.506z" fill="#fff"/><path d="M132.011 225.818c17.073-25.921 35.179-44.764 46.446-53.768-4.814-3.835-11.288-2.531-18.286 4.342-7.609 7.474-23.552 2.024-27.295 9.375-3.743 7.35 3.207 18.208-1.974 26.347-5.182 8.139-23.24 3.409-29.715 10.171-6.475 6.763 1.623 23.97-4.835 31.768s-13.888 3.536-21.386 17.419a30.73 30.73 0 0 0-3.271 18.37h29.368c8.063-25.92 20.615-48.334 30.948-64.024z" fill="#ceeff1"/><path d="M132.358 226.048c-10.312 15.639-22.808 37.967-30.867 63.794h34.836c-1.832-6.225-4.329-11.467-2.385-14.82 3.854-6.618 13.07-3.234 17.87-12.916 5.139-10.397-4.466-27.271 1.242-30.68s16.209.136 19.099-11.8c2.831-11.705-3.734-22.648 1.713-28.631 5.447-5.982 10.346-13.043 5.798-17.833a12.264 12.264 0 0 0-.899-.852l-.026.034c-11.228 8.974-29.316 27.792-46.381 53.704z" fill="#ceeff1"/><path d="M178.782 172.054a.204.204 0 0 0-.139-.075.221.221 0 0 0-.081.007.212.212 0 0 0-.071.038l-.034.026.321.264a.205.205 0 0 0 .004-.26zm-46.771 53.764c-10.333 15.69-22.885 38.103-30.948 64.024h.428c8.051-25.827 20.555-48.151 30.858-63.794 17.065-25.912 35.154-44.743 46.395-53.691l.025-.034-.321-.264c-11.258 8.995-29.364 27.838-46.437 53.759z" fill="#174290"/><path d="M146.682 205.995a.206.206 0 0 1-.206-.209c.142-5.54-6.813-18.05-6.881-18.178a.196.196 0 0 1-.026-.077.197.197 0 0 1 .041-.152.227.227 0 0 1 .062-.053.217.217 0 0 1 .287.081c.287.516 7.078 12.729 6.937 18.388a.208.208 0 0 1-.214.2zm18.615 7.917a.172.172 0 0 1-.064 0c-1.152-.383-16.273-2.957-23.767-1.006a.205.205 0 0 1-.142-.036.207.207 0 0 1 .039-.364c7.55-1.969 22.838.626 23.981 1.014a.198.198 0 0 1 .123.102.19.19 0 0 1 .01.158.208.208 0 0 1-.07.093.206.206 0 0 1-.11.039zm-44.022 30.174a.204.204 0 0 1-.205-.188c-.669-7.188-9.627-13.636-13.002-16.069-.428-.311-.766-.554-.972-.716a.204.204 0 0 1-.077-.138.2.2 0 0 1 .043-.151.211.211 0 0 1 .139-.078.213.213 0 0 1 .152.043c.202.158.536.397.96.704 3.425 2.458 12.487 8.991 13.168 16.367a.197.197 0 0 1-.008.08.204.204 0 0 1-.177.146zm21.955 12.766a.188.188 0 0 1-.132-.047c-2.287-1.921-18.414-7.917-24.679-7.444a.209.209 0 0 1-.227-.187.213.213 0 0 1 .193-.226c6.539-.495 22.606 5.539 24.983 7.542a.206.206 0 0 1 0 .29.195.195 0 0 1-.138.072zm-40.673 29.185a.21.21 0 0 1-.188-.115c-2.664-5.646-9.85-9.528-13.738-11.612a23.089 23.089 0 0 1-2.188-1.278.214.214 0 0 1-.067-.058.213.213 0 0 1-.035-.169.208.208 0 0 1 .187-.163.201.201 0 0 1 .163.058 23.36 23.36 0 0 0 2.141 1.227c3.914 2.105 11.194 6.025 13.918 11.795a.215.215 0 0 1-.099.277.215.215 0 0 1-.094.038zM373.786 290H.214a.214.214 0 0 1-.214-.213.213.213 0 0 1 .214-.213h373.572a.213.213 0 1 1 0 .426z" fill="#174290"/></g></svg>