<svg xmlns="http://www.w3.org/2000/svg" width="350" height="281" fill="none"><g clip-path="url(#a)"><mask id="b" style="mask-type:alpha" maskUnits="userSpaceOnUse" x="-49" y="-11" width="440" height="292"><path fill="#C4C4C4" d="M-49-11h440v292H-49z"/></mask><g mask="url(#b)"><path d="M169.262 307.114c80.196 0 145.209-65.012 145.209-145.209s-65.013-145.21-145.209-145.21c-80.197 0-145.21 65.013-145.21 145.21s65.013 145.209 145.21 145.209Z" fill="#EBF3F7"/><mask id="c" style="mask-type:alpha" maskUnits="userSpaceOnUse" x="20" y="169" width="172" height="171"><path d="m119.5 169 28.642 27.5 43.358 6-43.358 136.855L20 267.322 119.5 169Z" fill="#C4C4C4"/></mask><g mask="url(#c)"><path d="m26.59 382.312 124.023-196.247a8.574 8.574 0 1 0-14.499-9.164L12.092 373.147a8.576 8.576 0 1 0 14.499 9.165Z" fill="#11A4AA"/><path d="m60.612 360.332 124.022-196.246a8.578 8.578 0 0 0-9.135-12.949 8.583 8.583 0 0 0-5.364 3.784L46.114 351.168a8.575 8.575 0 1 0 14.498 9.164Z" fill="#174290"/></g><mask id="d" style="mask-type:alpha" maskUnits="userSpaceOnUse" x="122" y="100" width="102" height="102"><circle cx="173" cy="151" r="51" fill="#C4C4C4"/></mask><g mask="url(#d)"><path d="m-111.395 598.875 270.496-428.021a18.706 18.706 0 0 0-31.622-19.988l-270.496 428.02a18.702 18.702 0 0 0 5.817 25.805 18.702 18.702 0 0 0 25.805-5.816Z" fill="#11A4AA"/><path d="m-60.479 586.923 270.496-428.02a18.702 18.702 0 0 0-5.817-25.805 18.702 18.702 0 0 0-25.805 5.816L-92.101 566.935a18.704 18.704 0 1 0 31.622 19.988Z" fill="#174290"/></g><path d="M266.293 276.804c-3.104-6.569-12.839-10.554-14.488-11.788" stroke="#174290" stroke-width=".97" stroke-linecap="round" stroke-linejoin="round"/><path d="M36.984 255.627c-3.57-5.659-1.739-12.299-5.034-16.089-3.294-3.79-6.582-4.651-8.753-7.552-2.226-2.963.742-4.609-2.363-9.384-3.104-4.775-2.257-8.356-1.127-9.345 1.131-.988 3.945.222 6.107 4.127 2.162 3.905 6.488 1.615 9.32 4.73 2.832 3.114 3.777 7.407 6.52 10.608 2.745 3.201 6.542 1.565 11.564 6.245s3.747 11.553 7.162 15.488c3.416 3.935 10.339 2.666 14.798 7.9 4.46 5.235 3.924 16.783-5.646 22.261-9.57 5.479-16.006 1.815-19.812-4.864-3.153-5.532.484-9.987-1.331-14.094-1.815-4.108-8.883-6.025-11.405-10.031Z" fill="#51C1C7"/><path d="M36.984 255.627c-3.57-5.659-1.739-12.299-5.034-16.089-3.294-3.79-6.582-4.651-8.753-7.552-2.226-2.963.742-4.609-2.363-9.384-3.104-4.775-2.257-8.356-1.127-9.345 1.131-.988 3.945.222 6.107 4.127 2.162 3.905 6.488 1.615 9.32 4.73 2.832 3.114 3.777 7.407 6.52 10.608 2.745 3.201 6.542 1.565 11.564 6.245s3.747 11.553 7.162 15.488c3.416 3.935 10.339 2.666 14.798 7.9 4.46 5.235 3.924 16.783-5.646 22.261-9.57 5.479-16.006 1.815-19.812-4.864-3.153-5.532.484-9.987-1.331-14.094-1.815-4.108-8.883-6.025-11.405-10.031Z" fill="#125A6A"/><path d="M19.707 213.257c6.41 9.733 42.522 61.301 50.868 70.686M30.25 228.613l-6.205 1.462M31.752 230.77l2.48-6.695M44.86 249.355l-6.999 2.53M47.45 252.985l4.451-10.753M63.65 275.191l6.04-10.008M61.758 272.666l-10.026 2.058" stroke="#52C1C6" stroke-linecap="round" stroke-linejoin="round"/><path d="M95.626 273.413c-15.251-32.274-31.351-40.18-38.92-45.736 7.963 10.171 23.833 37.183 25.758 40.917-10.193-11.64-20.574-19.509-28.639-23.934 10.238 11.055 18.861 23.331 21.88 33.76-6.868-9.298-17.977-14.794-25.358-15.476 7.779 3.798 16.675 15.59 18.188 17.586-11.113-8.258-15.662-9.584-19.726-10.362 6.281 4.442 13.813 8.589 17.444 15.714 3.631 7.126 28.114 1.588 28.114 1.588l1.26-14.057Z" fill="#174290"/></g><path d="M329.982 224.859c-1.924-5.933-10.534-8.438-19.893-.37a73.126 73.126 0 0 0 6.491-8.75c-1.583-.758-3.633-1.951-3.58-2.404.052-.514 2.93-.722 5.441-.665 5.271-9.097 8.621-19.03 2.896-21.103-4.292-1.556-10.569.915-16.711 5.513 1.15 1.922 2.58 4.596 1.906 5.043-.77.514-3.186-.881-5.272-2.302a59.281 59.281 0 0 0-12.461 15.343c.188-1.844 2.339-8.9-4.987-10.478-3.423-.736-6.344.881-8.894 4.366 1.604.866 3.668 2.082 3.623 2.489-.058.525-2.256.513-5.347.256-2.177 3.968-4.047 9.405-5.688 15.955-3.534 14.14 3.08 30.957 3.08 30.957s27.783 1.223 40.196-2.17c12.413-3.392 12.386-12.376 1.092-13.596a45.247 45.247 0 0 0 7.521-3.106c-.731-2.298-1.725-5.811-1.062-6.124.822-.385 2.45 2.079 3.784 4.526 6.326-4.145 9.218-9.247 7.865-13.38Z" fill="#174290"/><path d="M130.424 280.525h174.042c0-6.724-8.458-7.097-9.44-7.097 3.814-5.541 4.559-21.794-9.235-21.918-.128-12.56-10.161-36.205-38.175-36.581-28.014-.376-38.87 29.927-39.44 36.022-5.044-2.173-12.09-.244-13.798 4.004-8.109-10.033-43.82-13.149-47.592 18.481-3.395-3.81-13.7 2.2-16.362 7.089Z" fill="#005988"/><path d="M206.742 272.536a3.306 3.306 0 1 0 0-6.612 3.306 3.306 0 0 0 0 6.612ZM250.451 250.059a2.569 2.569 0 1 0-.001-5.137 2.569 2.569 0 0 0 .001 5.137ZM170.451 263.059a2.569 2.569 0 1 0-.001-5.137 2.569 2.569 0 0 0 .001 5.137ZM274.401 271.438a4.808 4.808 0 1 0-.001-9.617 4.808 4.808 0 0 0 .001 9.617ZM245.107 229.494a3.71 3.71 0 1 0-.001-7.42 3.71 3.71 0 0 0 .001 7.42Z" fill="#EF7E5B"/><path d="M338.67 280.404H.194" stroke="#D6DEE7" stroke-linecap="round" stroke-linejoin="round"/><rect x="199" y="212.5" width="19" height="62" rx="8" transform="rotate(-30 199 212.5)" fill="#FDC300"/><rect x="212.458" y="216.246" width="6.852" height="46.249" rx="3.426" transform="rotate(-30 212.458 216.246)" fill="#FFDC66"/><rect x="193.1" y="196.597" width="13.139" height="23.707" rx="6" transform="rotate(-30 193.1 196.597)" fill="#018489"/><rect x="203.088" y="198.176" width="3.763" height="12.799" rx="1.881" transform="rotate(-30 203.088 198.176)" fill="#11A4AA"/><path d="M190.366 199.52c-25.646 10.061-54.991-3.22-65.451-29.883-10.46-26.663 2.027-56.355 27.673-66.416 25.646-10.06 54.992 3.22 65.451 29.883 10.46 26.663-2.027 56.355-27.673 66.416Z" stroke="#174290" stroke-width="5"/><circle cx="172.5" cy="150.5" r="52" stroke="#FDC300" stroke-width="7"/></g><defs><clipPath id="a"><path fill="#fff" d="M0 0h350v281H0z"/></clipPath></defs></svg>